<svg xmlns="http://www.w3.org/2000/svg" viewBox="0 0 800 1000" role="img" aria-label="Placeholder — chef portrait">
  <rect width="800" height="1000" fill="#2B2420"/>
  <rect x="0" y="0" width="800" height="600" fill="#5C4B3A"/>
  <g fill="#776558">
    <rect x="80" y="80" width="24" height="280"/>
    <rect x="140" y="110" width="24" height="260"/>
    <rect x="200" y="90" width="24" height="280"/>
    <rect x="620" y="100" width="24" height="270"/>
    <rect x="680" y="80" width="24" height="290"/>
  </g>
  <g fill="#C89F4B">
    <ellipse cx="110" cy="80" rx="25" ry="12"/>
    <ellipse cx="170" cy="110" rx="22" ry="10"/>
    <ellipse cx="230" cy="90" rx="24" ry="11"/>
    <ellipse cx="648" cy="100" rx="22" ry="10"/>
    <ellipse cx="710" cy="80" rx="26" ry="12"/>
  </g>
  <circle cx="400" cy="420" r="120" fill="#E8D0A0"/>
  <ellipse cx="400" cy="430" rx="140" ry="50" fill="#E8D0A0"/>
  <path d="M 270 560 Q 270 780 330 900 L 470 900 Q 530 780 530 560 Z" fill="#FAF6F0"/>
  <path d="M 285 580 Q 290 700 320 870 L 480 870 Q 510 700 515 580 Z" fill="#F3EDE3"/>
  <circle cx="370" cy="400" r="5" fill="#2B2420"/>
  <circle cx="430" cy="400" r="5" fill="#2B2420"/>
  <path d="M 370 460 Q 400 475 430 460" fill="none" stroke="#6D2E3F" stroke-width="3" stroke-linecap="round"/>
</svg>
